<svg width="25" height="25" viewBox="0 0 24 25" fill="none" xmlns="http://www.w3.org/2000/svg">
    <path d="M18.1399 22.0644C17.2599 22.3244 16.2199 22.4444 14.9999 22.4444H8.99986C7.77986 22.4444 6.73986 22.3244 5.85986 22.0644C6.07986 19.4644 8.74986 17.4144 11.9999 17.4144C15.2499 17.4144 17.9199 19.4644 18.1399 22.0644Z" stroke="#547838" stroke-width="1.5" stroke-linecap="round" stroke-linejoin="round"/>
    <path d="M15 2.44444H9C4 2.44444 2 4.44444 2 9.44444V15.4444C2 19.2244 3.14 21.2944 5.86 22.0644C6.08 19.4644 8.75 17.4144 12 17.4144C15.25 17.4144 17.92 19.4644 18.14 22.0644C20.86 21.2944 22 19.2244 22 15.4444V9.44444C22 4.44444 20 2.44444 15 2.44444ZM12 14.6144C10.02 14.6144 8.42 13.0045 8.42 11.0245C8.42 9.04446 10.02 7.44444 12 7.44444C13.98 7.44444 15.58 9.04446 15.58 11.0245C15.58 13.0045 13.98 14.6144 12 14.6144Z" stroke="#547838" stroke-width="1.5" stroke-linecap="round" stroke-linejoin="round"/>
    <path d="M15.5799 11.0245C15.5799 13.0045 13.9799 14.6144 11.9999 14.6144C10.0199 14.6144 8.41992 13.0045 8.41992 11.0245C8.41992 9.04446 10.0199 7.44444 11.9999 7.44444C13.9799 7.44444 15.5799 9.04446 15.5799 11.0245Z" stroke="#547838" stroke-width="1.5" stroke-linecap="round" stroke-linejoin="round"/>
</svg>
