<svg width="25" height="25" viewBox="0 0 24 25" fill="none" xmlns="http://www.w3.org/2000/svg">
    <path d="M12.8484 3.19591C12.3798 2.72728 11.62 2.72728 11.1514 3.19591L2.75137 11.5959C2.28275 12.0645 2.28275 12.8243 2.75137 13.293C3.22 13.7616 3.9798 13.7616 4.44843 13.293L4.7999 12.9415V20.8444C4.7999 21.5072 5.33716 22.0444 5.9999 22.0444H8.3999C9.06264 22.0444 9.5999 21.5072 9.5999 20.8444V18.4444C9.5999 17.7817 10.1372 17.2444 10.7999 17.2444H13.1999C13.8626 17.2444 14.3999 17.7817 14.3999 18.4444V20.8444C14.3999 21.5072 14.9372 22.0444 15.5999 22.0444H17.9999C18.6626 22.0444 19.1999 21.5072 19.1999 20.8444V12.9415L19.5514 13.293C20.02 13.7616 20.7798 13.7616 21.2484 13.293C21.7171 12.8243 21.7171 12.0645 21.2484 11.5959L12.8484 3.19591Z" fill="#547838"/>
</svg>
