<svg width="36" height="34" viewBox="0 0 36 34" fill="none" xmlns="http://www.w3.org/2000/svg">
    <path d="M23.25 19.8333H22.065L21.645 19.4508C23.115 17.8358 24 15.7392 24 13.4583C24 8.3725 19.635 4.25 14.25 4.25C8.865 4.25 4.5 8.3725 4.5 13.4583C4.5 18.5442 8.865 22.6667 14.25 22.6667C16.665 22.6667 18.885 21.8308 20.595 20.4425L21 20.8392V21.9583L28.5 29.0275L30.735 26.9167L23.25 19.8333V19.8333ZM14.25 19.8333C10.515 19.8333 7.5 16.9858 7.5 13.4583C7.5 9.93083 10.515 7.08333 14.25 7.08333C17.985 7.08333 21 9.93083 21 13.4583C21 16.9858 17.985 19.8333 14.25 19.8333Z" fill="#547838"/>
</svg>
